# icosahedron.obj — 正二十面体,12 顶点 20 三角面
# 顶点:φ = (1+√5)/2 ≈ 1.618
v  0.0000  1.0000  1.6180
v  0.0000 -1.0000  1.6180
v  0.0000  1.0000 -1.6180
v  0.0000 -1.0000 -1.6180
v  1.0000  1.6180  0.0000
v -1.0000  1.6180  0.0000
v  1.0000 -1.6180  0.0000
v -1.0000 -1.6180  0.0000
v  1.6180  0.0000  1.0000
v  1.6180  0.0000 -1.0000
v -1.6180  0.0000  1.0000
v -1.6180  0.0000 -1.0000
# 20 三角面(围绕每顶点 5 邻的 5 邻接三角面)
f 1 2 9
f 1 2 11
f 1 5 6
f 1 5 9
f 1 6 11
f 2 7 8
f 2 7 9
f 2 8 11
f 3 4 10
f 3 4 12
f 3 5 6
f 3 5 10
f 3 6 12
f 4 7 8
f 4 7 10
f 4 8 12
f 5 9 10
f 6 11 12
f 7 9 10
f 8 11 12
